<svg width="490" height="490" viewBox="0 0 490 490" fill="none" xmlns="http://www.w3.org/2000/svg">
<path d="M348.696 411.221C357.257 411.221 364.196 403.744 364.196 394.521C364.196 385.298 357.257 377.821 348.696 377.821C340.136 377.821 333.196 385.298 333.196 394.521C333.196 403.744 340.136 411.221 348.696 411.221Z" fill="#08266B"/>
<path d="M166.796 332.721C159.396 325.321 150.496 320.621 141.096 320.621C131.396 320.621 122.396 325.321 115.096 333.021C129.096 330.021 146.896 328.421 166.796 332.721Z" fill="#08266B"/>
<path d="M489.396 449.721C477.396 366.921 428.796 296.921 361.896 258.821C364.996 282.121 368.096 321.821 360.696 356.821C375.496 362.221 386.396 377.021 386.396 394.521C386.396 416.721 369.696 434.121 348.696 434.121C327.696 434.121 310.996 416.321 310.996 394.521C310.996 375.521 323.396 359.921 340.196 355.621C350.296 314.421 342.096 261.121 339.796 247.521C337.096 246.321 334.396 245.221 331.596 244.021C309.096 267.321 278.696 281.721 244.896 281.721C211.896 281.721 181.496 267.721 159.396 245.221C155.896 253.021 149.296 272.021 150.496 300.421C183.496 307.021 208.796 347.421 208.796 396.021C208.796 413.921 205.296 431.821 198.696 446.921C195.096 458.321 179.996 462.921 172.996 462.921C162.496 462.921 153.996 454.021 153.996 442.721C153.996 431.421 162.596 422.521 172.996 422.521C176.096 422.521 180.396 423.321 185.096 425.221C193.096 402.121 186.996 370.821 183.196 360.321C145.896 343.221 111.696 354.921 99.1961 360.321C95.6961 370.821 88.9961 399.421 97.2961 425.221C101.996 423.321 106.196 422.521 109.396 422.521C119.896 422.521 128.396 431.421 128.396 442.721C128.396 454.021 119.796 462.921 109.396 462.921C102.796 462.921 87.9961 458.621 84.0961 448.121C77.0961 432.621 73.5961 414.721 73.5961 396.021C73.5961 347.821 98.4961 307.821 130.696 300.421C129.896 281.721 132.296 266.221 134.996 254.921C64.0961 292.321 12.7961 364.221 0.396137 449.721C-2.70386 470.721 12.7961 489.721 32.6961 489.721H456.796C476.996 489.721 492.496 470.721 489.396 449.721Z" fill="#08266B"/>
<path d="M244.896 264.321C303.196 264.321 350.596 214.221 350.596 152.321C350.596 143.721 349.796 135.621 347.896 127.421C347.896 127.421 298.196 111.921 244.896 111.921C191.696 111.921 142.296 127.421 142.296 127.421C140.696 135.621 139.596 143.721 139.596 152.321C139.196 214.521 186.596 264.321 244.896 264.321Z" fill="#08266B"/>
<path d="M339.396 103.421C346.796 74.2208 353.796 44.7208 360.796 15.5208C284.896 -5.0792 204.896 -5.0792 129.096 15.5208C136.096 44.7208 143.496 74.2208 150.496 103.421C212.196 86.6208 277.596 86.6208 339.396 103.421ZM216.496 36.1208H236.296V15.1208H253.396V36.1208H273.196V54.0208H253.396V75.0208H236.296V54.0208H216.496V36.1208Z" fill="#08266B"/>
</svg>
