<svg width="381" height="436" viewBox="0 0 381 436" fill="none" xmlns="http://www.w3.org/2000/svg">
<path d="M381 190.156V383.6C381 397.379 375.526 410.594 365.783 420.337C356.04 430.08 342.825 435.554 329.045 435.554H51.9545C38.1753 435.554 24.9605 430.08 15.2171 420.337C5.47377 410.594 0 397.379 0 383.6V190.156C0.0121263 176.381 5.49385 163.175 15.24 153.441L153.785 14.8956C163.656 5.41272 176.812 0.116699 190.5 0.116699C204.188 0.116699 217.344 5.41272 227.215 14.8956L365.76 153.441C375.506 163.175 380.988 176.381 381 190.156Z" fill="#08266B"/>
<path d="M365.759 153.44L227.214 14.8945C217.423 5.27527 204.224 -0.0790602 190.499 0.000882483V435.553H329.044C342.824 435.553 356.039 430.079 365.782 420.336C375.525 410.593 380.999 397.378 380.999 383.599V190.155C380.987 176.38 375.505 163.174 365.759 153.44V153.44Z" fill="#08266B"/>
<path d="M259.772 297.005V435.551H121.227V297.005C121.227 283.226 126.7 270.011 136.444 260.268C146.187 250.525 159.402 245.051 173.181 245.051H207.817C221.597 245.051 234.812 250.525 244.555 260.268C254.298 270.011 259.772 283.226 259.772 297.005Z" fill="white"/>
<path d="M259.772 297.005C259.772 283.226 254.298 270.011 244.555 260.268C234.811 250.525 221.596 245.051 207.817 245.051H190.499V435.551H259.772V297.005Z" fill="white"/>
</svg>
