<svg width="40" height="42" viewBox="0 0 40 42" fill="none" xmlns="http://www.w3.org/2000/svg">
<path d="M32 5.6H36C38.2091 5.6 40 7.4804 40 9.8V37.8C40 40.1195 38.2091 42 36 42H4C1.79086 42 0 40.1195 0 37.8V9.8C0 7.4804 1.79086 5.6 4 5.6H8V0H10.6667V5.6H29.3333V0H32V5.6ZM16 22.4H8V19.6H16V22.4ZM32 19.6H24V22.4H32V19.6ZM16 30.8H8V28H16V30.8ZM24 30.8H32V28H24V30.8Z" fill="#08266B"/>
<path d="M32 5.6H36C38.2091 5.6 40 7.4804 40 9.8V37.8C40 40.1195 38.2091 42 36 42H4C1.79086 42 0 40.1195 0 37.8V9.8C0 7.4804 1.79086 5.6 4 5.6H8V0H10.6667V5.6H29.3333V0H32V5.6ZM16 22.4H8V19.6H16V22.4ZM32 19.6H24V22.4H32V19.6ZM16 30.8H8V28H16V30.8ZM24 30.8H32V28H24V30.8Z" stroke="white"/>
</svg>
