<svg width="301" height="301" viewBox="0 0 301 301" fill="none" xmlns="http://www.w3.org/2000/svg">
<g clip-path="url(#clip0_3_81)">
<path d="M248.068 203.507C248.911 198.021 248.771 189.403 245.599 183.131C240.246 172.531 230.66 165.681 221.18 165.681C218.477 165.681 215.879 166.254 213.456 167.382L197.407 174.753C194.819 175.941 191.761 174.82 190.547 172.248L177.091 143.664C175.34 139.906 171.372 137.732 168.493 139.071C166.776 139.87 166.089 141.553 165.832 142.484C165.313 144.372 165.549 146.597 166.478 148.592L188.366 195.529C188.649 196.136 188.804 196.771 188.846 197.402C189.022 198.943 188.504 200.514 187.373 201.656C185.843 203.197 183.514 203.622 181.53 202.714L172.001 198.344C171.29 198.017 170.58 197.851 169.895 197.851C168.041 197.851 166.596 199.078 166.028 201.135C165.071 204.605 167.107 208.97 170.385 210.469L198.134 223.175C198.367 223.281 198.59 223.403 198.803 223.543C199.208 223.808 207.865 229.55 214.819 243.19L253.083 225.706C250.366 218.646 247.313 208.466 248.068 203.507Z" fill="#08266B"/>
<path d="M155.849 214.952H131.492V230.514H155.849V214.952Z" fill="#08266B"/>
<path d="M173.353 187.883L158.894 156.879C156.028 158.554 152.716 159.595 149.357 159.986V167.808H136.985V160.362C127.277 159.177 120.145 154.296 116.83 146.53L116.322 145.334L127.801 140.474L128.307 141.67C130.058 145.83 136.135 148.966 142.437 148.966C145.259 148.966 154.466 148.455 154.466 141.87C154.466 138.444 150.521 136.379 142.055 135.378C132.925 134.356 119.114 132.815 119.114 118.149C119.114 109.193 125.767 102.927 136.984 101.226V94.363H149.356V101.259C154.582 102.2 161.419 104.519 165.242 112.344L165.826 113.532L155.257 118.421L154.658 117.428C152.915 114.549 147.572 112.204 142.751 112.204C139.457 112.204 131.801 112.782 131.801 118.146C131.801 121.972 136.747 122.864 143.21 123.637C149.868 124.454 158.103 125.484 163.098 130.217C163.433 130.028 163.767 129.833 164.117 129.67C166.078 128.754 168.186 128.29 170.381 128.29C174.632 128.29 178.73 130.046 181.954 133.031V67.211H103.798V203.236H155.414C155.391 201.61 155.588 199.973 156.029 198.373C157.826 191.853 163.4 187.475 169.897 187.475C171.057 187.475 172.212 187.613 173.353 187.883Z" fill="#08266B"/>
<path d="M150 0C67.159 0 0.00201416 67.162 0.00201416 150C0.00201416 232.838 67.159 300.005 150 300.005C232.843 300.005 300.003 232.84 300.003 150C300.003 67.16 232.843 0 150 0ZM261.959 233.053L214.439 254.767C213.754 255.078 213.02 255.236 212.284 255.236C211.643 255.236 211.003 255.117 210.393 254.878C209.086 254.367 208.041 253.345 207.499 252.048C203.987 243.645 199.555 238.221 196.544 235.205C192.48 240.265 186.284 243.538 179.289 243.538H108.055C95.795 243.538 85.854 233.597 85.854 221.337V71.475C85.854 59.215 95.795 49.274 108.055 49.274H179.284C191.544 49.274 201.488 59.215 201.488 71.475V161.464L209.1 157.968C212.879 156.204 216.951 155.307 221.181 155.307C234.538 155.307 247.758 164.392 254.859 178.453C259.131 186.903 259.452 197.744 258.324 205.077C257.995 207.588 261.133 218.917 264.505 226.148C265.091 227.398 265.148 228.835 264.671 230.132C264.192 231.427 263.217 232.48 261.959 233.053Z" fill="#08266B"/>
</g>
<defs>
<clipPath id="clip0_3_81">
<rect width="300.005" height="300.005" fill="white"/>
</clipPath>
</defs>
</svg>
