<svg width="33" height="43" viewBox="0 0 33 43" fill="none" xmlns="http://www.w3.org/2000/svg">
<path d="M6.54198 29.34L7.62998 28.252H15.59L10.511 19.075L6.75498 19.839C5.76998 20.039 4.98398 20.781 4.72698 21.753L0.267985 36.305C0.0579851 37.097 0.228985 37.942 0.728985 38.59C1.22899 39.24 2.00199 39.62 2.82199 39.62H6.54298L6.54198 29.34Z" fill="#08266B"/>
<path d="M32.31 36.305L27.851 21.753C27.59 20.769 26.789 20.022 25.789 19.832L22.047 19.124L16.989 28.251H25.549L26.637 29.339V39.618H29.758C30.577 39.618 31.351 39.238 31.851 38.588C32.35 37.938 32.518 37.097 32.31 36.305Z" fill="#08266B"/>
<path d="M8.71899 39.62H8.41699V39.624L24.159 39.623V39.62H24.46V30.43H8.71899V39.62Z" fill="#08266B"/>
<path d="M28.205 40.608H4.37198V42.576H28.205V40.608Z" fill="#08266B"/>
<path d="M7.80399 12.654C7.84599 12.74 7.90099 12.872 7.95899 13.01C8.18999 13.566 8.37799 13.981 8.63899 14.225C9.84799 18.17 12.968 20.901 16.283 20.891C19.584 20.88 22.666 18.125 23.83 14.169C24.086 13.923 24.268 13.51 24.493 12.958C24.55 12.817 24.602 12.684 24.643 12.598C25.09 11.674 24.936 10.673 24.311 10.186C24.311 10.156 24.311 10.125 24.311 10.095C24.296 5.198 23.657 -0.0250022 16.211 -2.15753e-06C8.70999 0.0239978 8.09999 5.027 8.11599 10.148C8.11599 10.179 8.11699 10.209 8.11699 10.239C7.49699 10.733 7.35099 11.735 7.80399 12.654ZM8.85099 11.077L8.87299 11.068C8.99599 11.023 9.09399 10.936 9.15699 10.828L10.456 11.029C10.581 11.047 10.702 10.98 10.752 10.865L11.573 8.969C12.502 9.192 16.02 9.987 18.777 9.977C19.631 9.975 20.34 9.892 20.889 9.731L21.41 10.988C21.453 11.094 21.556 11.16 21.665 11.159C21.688 11.159 21.715 11.155 21.739 11.149L23.252 10.724C23.312 10.857 23.423 10.966 23.565 11.019L23.586 11.026C23.811 11.138 23.885 11.629 23.648 12.117C23.591 12.235 23.532 12.384 23.466 12.542C23.374 12.771 23.185 13.237 23.07 13.362C22.945 13.434 22.85 13.553 22.812 13.694C21.823 17.272 19.132 19.777 16.273 19.787C13.399 19.796 10.671 17.309 9.63999 13.739C9.59899 13.598 9.50599 13.481 9.37899 13.41C9.26299 13.285 9.06699 12.816 8.97199 12.586C8.90799 12.431 8.84599 12.283 8.78799 12.167C8.55499 11.681 8.62499 11.19 8.85099 11.077Z" fill="#08266B"/>
</svg>
